PathFileType	4	(X/Y/Z)	C:/Users/beibeiliu/ov580/test_trc/User1\sequence.15_training_dense_left.trc
DataRate	CameraRate	NumFrames	NumMarkers	Units	OrigDataRate	OrigDataStartFrame	OrigNumFrames
120	120	8	19	mm	120	35	273
Frame#	Time	ThumbCMC			ThumbMCP			ThumbIP			ThumbTip			IndexMCP			IndexPIP			IndexTip			MiddleMCP			MiddlePIP			MiddleTip			RingMCP			RingPIP			RingTip			PinkyMCP			PinkyPIP			PinkyTip			BackHand1			BackHand2			BackHand3	
		X0	Y0	Z0	X1	Y1	Z1	X2	Y2	Z2	X3	Y3	Z3	X4	Y4	Z4	X5	Y5	Z5	X6	Y6	Z6	X7	Y7	Z7	X8	Y8	Z8	X9	Y9	Z9	X10	Y10	Z10	X11	Y11	Z11	X12	Y12	Z12	X13	Y13	Z13	X14	Y14	Z14	X15	Y15	Z15	X16	Y16	Z16	X17	Y17	Z17	X18	Y18	Z18	
34	0.283333	-167.437	74.1559	55.9435	-149.181	65.8602	20.5621	-147.814	74.6762	-7.31816	-157.2	82.0019	-33.154	-156.926	141.008	7.10189	-155.42	159.841	-18.1508	-156.482	172.021	-35.3276	-173.661	132.799	-21.7396	-171.561	102.625	-39.0095	-175.844	80.8013	-6.00646	-199.581	128.55	-24.6555	-189.066	98.7287	-40.3599	-193.826	78.2796	-12.21	-231.593	127.846	-9.01329	-232.105	140.418	-28.3716	-234.925	158.455	-40.2479	-214.643	123.691	38.7286	-228.63	104.085	66.63	-191.852	112.179	60.0804	
35	0.291667	-165.7	72.4834	57.9144	-148.554	70.0191	20.5473	-147.682	76.941	-5.17667	-156.84	82.7533	-31.5034	-154.044	143.688	8.75153	-149.103	161.193	-14.924	-152.201	172.806	-33.1589	-175.396	134.03	-21.335	-167.19	104.483	-36.9698	-171.698	81.1437	-6.38678	-198.061	129.353	-23.8817	-187.938	99.1806	-39.6122	-189.968	79.977	-14.1598	-229.413	132.504	-12.346	-229.975	142.022	-28.1918	-234.502	156.31	-38.9133	-215.605	126.33	37.869	-228.829	106.919	66.0758	-191	110.043	61.7878	
36	0.3	-164.74	73.1196	59.4883	-149.029	70.3051	22.8995	-146.365	76.4451	-3.27049	-151.814	81.594	-34.1086	-156.946	143.033	8.58084	-153.6	157.849	-10.0721	-154.102	173.261	-31.8412	-173.05	134.857	-16.5095	-164.523	108.211	-36.98	-174.556	82.213	-7.92161	-197.094	130.027	-20.3371	-187.501	104.375	-39.4119	-187.948	79.684	-10.5454	-225.533	132.093	-11.2305	-226.209	141.284	-26.3135	-233.29	159.047	-40.0438	-218.132	123.13	39.7177	-227.536	107.266	66.3304	-190.772	110.445	62.7368	
37	0.308333	-165.776	74.6504	58.6358	-148.204	70.7782	23.3196	-145.285	75.0654	-1.84369	-150.251	80.4928	-32.2188	-155.145	145.055	7.10976	-150.895	159.873	-11.0528	-148.32	174.277	-31.1463	-174.389	134.309	-14.3793	-166.423	107.428	-36.0459	-174.639	82.9787	-7.45393	-197.373	129.819	-20.3321	-184.2	100.834	-37.692	-191.341	78.1167	-10.5912	-227.816	129.469	-5.55289	-228.896	139.707	-24.0341	-227.761	158.207	-35.4479	-213.693	121.041	43.2451	-230.684	106.557	66.8165	-186.213	111.289	64.2915	
38	0.316667	-167.434	74.899	59.3619	-146.527	66.4633	24.5332	-142.342	74.3253	-3.63727	-152.505	78.9505	-28.3213	-153.839	141.539	11.5001	-146.342	158.926	-10.0453	-149.893	173.98	-30.8222	-168.683	134.494	-12.9961	-165.035	106.87	-35.5648	-173.761	82.2969	-3.98283	-192.241	129.339	-20.6676	-184.721	101.72	-38.4554	-188.35	78.5532	-13.7262	-224.609	130.628	-8.31704	-228.906	139.708	-23.6949	-231.901	161.025	-38.7354	-216.118	120.654	40.8277	-225.095	105.362	67.8522	-186.16	110.992	66.1107	
39	0.325	-168.266	74.5	58.5644	-151.418	66.9359	25.8411	-144.228	75.3895	-5.99627	-154.895	82.4073	-34.1489	-153.505	143.903	6.80692	-149.037	156.65	-8.78932	-147.954	174.523	-31.9311	-172.686	133.973	-18.6587	-166.239	104.649	-35.8368	-174.254	82.1105	-8.81129	-192.344	128.529	-20.4942	-186.344	99.6904	-38.3046	-191.299	76.4608	-12.1849	-226.106	130.929	-10.8153	-228.454	140.192	-25.8849	-231.136	159.082	-40.7538	-213.221	122.052	42.0587	-227.823	104.766	65.8143	-186.487	108.226	66.2135	
40	0.333333	-163.301	71.8535	57.0019	-149.93	67.4426	22.2991	-144.054	74.3297	-6.4269	-153.349	79.6373	-34.898	-155.939	143.486	5.81572	-149.709	156.7	-12.511	-152.188	171.81	-32.7512	-173.882	132.224	-18.936	-167.434	105.03	-38.0068	-169.708	80.4393	-7.08385	-196.721	126.483	-23.1256	-187.428	98.7278	-40.4203	-189.025	75.5912	-11.7649	-225.52	128.598	-8.36282	-230.674	137.102	-25.549	-230.748	157.705	-37.5863	-216.978	122.742	36.9872	-227.915	103.612	65.9273	-189.793	109.332	64.1894	
41	0.341667	-163.981	71.5623	56.6361	-152.929	63.3647	22.7702	-145.426	71.5485	-10.956	-157.513	77.9734	-35.2134	-155.994	139.141	5.15411	-152.775	153.141	-13.8027	-155.545	167.497	-36.3147	-175.863	130.038	-22.5037	-168.466	101.636	-40.3978	-176.642	77.7172	-9.39616	-199.887	123.614	-25.1432	-187.716	95.5321	-40.9978	-188.821	73.1507	-14.6554	-231.145	125.793	-12.508	-231.792	134.976	-28.3451	-236.922	155.206	-41.427	-216.666	119.545	36.8107	-225.909	101.678	64.8199	-188.819	106.52	63.3847	
